<svg width="51" height="51" viewBox="0 0 51 51" fill="none" xmlns="http://www.w3.org/2000/svg">
<g clip-path="url(#clip0)">
<path d="M50.2 9.98955C48.3406 10.8052 46.3594 11.3458 44.2938 11.6083C46.4188 10.3396 48.0406 8.3458 48.8031 5.94268C46.8219 7.12393 44.6344 7.9583 42.3031 8.42393C40.4219 6.4208 37.7406 5.18018 34.8156 5.18018C29.1406 5.18018 24.5719 9.78643 24.5719 15.4333C24.5719 16.2458 24.6406 17.0271 24.8094 17.7708C16.2875 17.3552 8.74689 13.2708 3.68126 7.04893C2.79689 8.5833 2.27814 10.3396 2.27814 12.2302C2.27814 15.7802 4.10626 18.9271 6.83126 20.7489C5.18439 20.7177 3.56876 20.2396 2.20001 19.4864C2.20001 19.5177 2.20001 19.5583 2.20001 19.5989C2.20001 24.5802 5.75314 28.7177 10.4125 29.6708C9.57814 29.8989 8.66876 30.0083 7.72501 30.0083C7.06876 30.0083 6.40626 29.9708 5.78439 29.8333C7.11251 33.8927 10.8813 36.8771 15.3625 36.9739C11.875 39.702 7.44689 41.3458 2.65314 41.3458C1.81251 41.3458 1.00626 41.3083 0.200012 41.2052C4.74064 44.1333 10.1219 45.8052 15.925 45.8052C34.7875 45.8052 45.1 30.1802 45.1 16.6364C45.1 16.1833 45.0844 15.7458 45.0625 15.3114C47.0969 13.8677 48.8063 12.0646 50.2 9.98955Z" fill="#03A9F4"/>
</g>
<defs>
<clipPath id="clip0">
<rect width="50" height="50" fill="white" transform="translate(0.200012 0.492676)"/>
</clipPath>
</defs>
</svg>
